PathFileType	4	(X/Y/Z)	Kaydara	
DataRate	CameraRate	NumFrames	NumMarkers	Units	OrigDataRate	OrigDataStartFrame	OrigNumFrames	
60.00	60.00	4	74	mm	60.00	1078	141	
Frame#	Time	Z_lasi			Z_rasi			Z_rpsi			Z_lpsi			Z_fneck			Z_bneck			Z_fhead			Z_rhead			Z_lhead			Z_rshld			Z_relbtop			Z_relbext			Z_relblow			Z_rwrext			Z_rwrtop			Z_rwrlow			Z_lshld			Z_lelbext			Z_lelblow			Z_lelbtop			Z_lwrext			Z_lwrtop			Z_lwrlow			Z_rtopleg			Z_ltopleg			Z_rkneefr			Z_rkneebk			Z_rkneeis			Z_lkneefr			Z_lknssbk			Z_lkneeis			Z_rankfr			Z_rankis			Z_rankbk			Z_lankfr			Z_lankbk			Z_lankis			A_lasi			A_rasi			A_rpsi			A_lpsi			A_fneck			A_bneck			A_fhead			A_rhead			A_lhead			A_rshld			A_relbtop			A_relbext			A_relblow			A_rwrext			A_rwrtop			A_rwrlow			A_lshld			A_lelbext			A_lelblow			A_lelbtop			A_lwrext			A_lwrtop			A_lwrlow			A_rtopleg			A_ltopleg			A_rkneefr			A_rkneebk			A_rkneeis			A_lkneefr			A_lknssbk			A_lkneeis			A_rankfr			A_rankis			A_rankbk			A_lankfr			A_lankbk			A_lankis			
		X1	Y1	Z1	X2	Y2	Z2	X3	Y3	Z3	X4	Y4	Z4	X5	Y5	Z5	X6	Y6	Z6	X7	Y7	Z7	X8	Y8	Z8	X9	Y9	Z9	X10	Y10	Z10	X11	Y11	Z11	X12	Y12	Z12	X13	Y13	Z13	X14	Y14	Z14	X15	Y15	Z15	X16	Y16	Z16	X17	Y17	Z17	X18	Y18	Z18	X19	Y19	Z19	X20	Y20	Z20	X21	Y21	Z21	X22	Y22	Z22	X23	Y23	Z23	X24	Y24	Z24	X25	Y25	Z25	X26	Y26	Z26	X27	Y27	Z27	X28	Y28	Z28	X29	Y29	Z29	X30	Y30	Z30	X31	Y31	Z31	X32	Y32	Z32	X33	Y33	Z33	X34	Y34	Z34	X35	Y35	Z35	X36	Y36	Z36	X37	Y37	Z37	X38	Y38	Z38	X39	Y39	Z39	X40	Y40	Z40	X41	Y41	Z41	X42	Y42	Z42	X43	Y43	Z43	X44	Y44	Z44	X45	Y45	Z45	X46	Y46	Z46	X47	Y47	Z47	X48	Y48	Z48	X49	Y49	Z49	X50	Y50	Z50	X51	Y51	Z51	X52	Y52	Z52	X53	Y53	Z53	X54	Y54	Z54	X55	Y55	Z55	X56	Y56	Z56	X57	Y57	Z57	X58	Y58	Z58	X59	Y59	Z59	X60	Y60	Z60	X61	Y61	Z61	X62	Y62	Z62	X63	Y63	Z63	X64	Y64	Z64	X65	Y65	Z65	X66	Y66	Z66	X67	Y67	Z67	X68	Y68	Z68	X69	Y69	Z69	X70	Y70	Z70	X71	Y71	Z71	X72	Y72	Z72	X73	Y73	Z73	X74	Y74	Z74	

18	17.950	-222.28474	1071.84021	745.84496	-278.89032	1088.41942	546.25416	-106.38932	1115.14656	461.44363	-34.02787	1095.21484	696.52153	-204.11699	1453.19168	656.65848	-87.30455	1499.53934	659.13818	-245.41403	1677.96082	646.68022	-90.21768	1645.21179	590.37560	-107.17495	1633.65372	737.32155	-158.33893	1452.83386	444.88571	-128.98120	1138.29849	341.34369	-102.25069	1117.65144	392.76005	-194.43365	1146.12511	381.97166	-232.85845	912.67601	338.65784	-261.62678	923.54591	373.40893	-233.03593	914.94080	405.04375	-93.90019	1422.39548	835.98061	-72.81059	1103.30963	829.05930	-131.22305	1125.09659	894.05464	-62.51357	1120.46097	897.92229	-209.14135	873.13591	876.80748	-196.76178	863.47794	921.49887	-151.50438	857.73438	911.52084	-155.30888	925.67993	413.24703	-132.67763	888.39897	778.52249	-240.85321	424.72572	426.30863	-167.56132	456.20876	381.97037	-180.72300	427.12803	504.27834	-187.35497	443.07415	710.80452	-82.18307	467.77504	700.53131	-177.12719	443.82278	618.14945	-201.88118	185.00875	385.83565	-181.49498	174.77568	448.39134	-125.45079	176.48460	381.41373	-126.04242	159.17765	685.09148	-68.99025	165.51212	627.41493	-148.23410	174.01094	617.42493	-988.41080	1034.61128	474.79225	-982.91862	1040.63385	634.45663	-1141.87416	1034.35593	649.18350	-1111.58966	1039.95026	467.49092	-1054.70764	1376.86386	569.76208	-1189.51195	1414.98215	554.17625	-987.70744	1583.71307	586.84990	-1142.89818	1555.81467	655.71877	-1126.84608	1558.61145	493.01235	-1133.17368	1345.70038	741.91986	-1057.32353	1064.84741	772.78824	-1118.44650	1043.43956	781.99211	-1076.38809	1051.92535	718.96492	-964.11034	841.56731	716.58554	-926.59195	867.06993	720.07050	-936.63040	884.45221	686.14792	-1081.94626	1352.94525	390.15198	-1056.26770	1041.88324	353.22086	-1013.89862	1064.19655	410.47577	-1009.26720	1057.32780	356.65779	-940.09514	875.89348	480.10609	-921.84044	861.49666	444.55536	-889.46533	886.83800	465.06866	-1081.37978	875.42061	732.12814	-1039.84596	889.87885	395.79487	-1031.09390	452.24461	642.18826	-1139.80896	485.64037	685.70953	-1118.06923	485.36285	567.66735	-1015.42397	465.51273	511.31863	-1097.67868	479.79771	414.43771	-1121.45866	479.10088	538.42987	-1100.91362	165.49011	663.72017	-1133.22884	162.07796	597.46681	-1182.14424	152.93309	666.10283	-1067.60078	166.02526	457.74246	-1128.40248	167.87653	421.97464	-1127.73048	173.03062	511.58257 
19	17.967	-222.11126	1072.05627	745.39261	-279.34835	1088.46046	546.02852	-107.03217	1115.07446	460.57468	-33.99525	1095.27367	695.48218	-203.79185	1453.27148	655.67024	-87.00998	1499.67316	657.65450	-245.96817	1677.57553	645.72075	-90.93635	1645.64316	588.54271	-107.05753	1634.06326	735.63278	-158.92120	1452.69867	443.81359	-130.23735	1138.14781	340.20927	-103.20399	1117.48863	391.49696	-195.56540	1145.97763	381.09936	-233.83974	912.41074	338.14632	-262.56359	923.35678	372.80334	-234.16492	914.72115	404.51996	-92.90288	1422.67838	834.50745	-72.65587	1103.61427	828.20419	-130.56358	1125.61195	893.05313	-62.07849	1120.72411	896.86752	-209.62334	873.96744	876.07094	-197.09507	864.12582	920.79453	-151.96628	858.35579	910.61714	-156.15906	925.66177	412.72678	-132.56291	888.51379	777.91389	-241.07317	424.67773	426.18412	-167.93152	456.18385	381.76186	-180.74650	427.05364	504.02954	-187.05633	443.08765	710.50819	-82.04130	467.90352	699.94133	-177.14516	443.83354	617.92427	-202.00405	184.94432	385.94872	-181.50730	174.78254	448.37132	-125.63135	176.47871	381.26350	-125.90045	159.22277	685.02213	-69.02713	165.50438	627.30560	-148.21968	174.01365	617.33803	-988.39378	1034.56039	474.74174	-982.88803	1040.72510	634.36737	-1141.78467	1034.18777	649.14856	-1111.56601	1039.72145	467.41943	-1054.73434	1376.56006	569.42497	-1189.31885	1415.01724	554.15150	-987.00256	1583.02536	587.00653	-1141.92032	1555.34393	656.36917	-1126.55846	1558.93906	493.72322	-1133.72238	1345.62286	741.56876	-1057.79701	1064.79370	772.79282	-1119.28574	1043.36266	781.52435	-1076.69907	1051.92566	718.99666	-964.17992	841.33194	717.51648	-926.88065	867.05917	720.81413	-936.89240	884.30634	686.82487	-1081.96472	1352.67532	389.87572	-1056.33499	1041.55106	352.14035	-1014.27383	1064.04564	409.39114	-1009.44901	1056.98082	355.48531	-940.32036	876.18118	479.81552	-921.76804	861.89812	444.75819	-889.59671	887.45071	465.31147	-1081.09985	875.38193	732.18643	-1039.49234	889.86649	395.83183	-1030.82397	452.27303	642.31094	-1139.45984	485.68806	685.69908	-1117.56821	485.42267	567.59895	-1014.51675	465.66010	510.96546	-1097.44217	479.85844	414.54422	-1121.37413	479.24187	538.65074	-1100.76462	165.53802	663.64807	-1133.12668	162.14367	597.46197	-1182.07970	153.00438	666.10260	-1067.50771	166.03680	457.77225	-1128.36227	167.92423	422.04174	-1127.65869	173.05653	511.62338 
20	17.983	-222.00113	1072.28729	744.96361	-279.72786	1088.55713	545.79514	-107.80501	1115.00763	459.78134	-34.00491	1095.30571	694.52477	-203.49117	1453.28201	654.60442	-86.79460	1499.91821	656.14937	-246.88295	1676.88141	644.70879	-91.86573	1646.34521	586.79485	-107.23219	1634.64539	733.83804	-159.52004	1452.56897	442.58495	-131.33113	1137.94998	339.13403	-104.15934	1117.41570	390.44567	-196.55439	1145.70747	380.29865	-234.82430	912.13974	337.39597	-263.45095	922.98538	372.07630	-234.87808	914.43718	403.87360	-92.10011	1422.99835	833.14240	-72.26788	1103.90869	826.92612	-129.98231	1126.14677	892.10518	-61.52073	1121.01494	895.67719	-210.02436	874.80843	875.36980	-197.39763	864.98116	920.01244	-152.24901	859.01077	909.58382	-157.13007	925.61966	412.20081	-132.45147	888.67226	777.29019	-241.42910	424.58866	426.05389	-168.41379	456.12438	381.54541	-181.02900	427.09393	503.88859	-187.09921	443.21064	710.47188	-81.88976	468.00789	699.47311	-177.17978	443.85593	617.66026	-202.16904	184.84522	385.97942	-181.54509	174.74449	448.35278	-125.79164	176.47276	381.12347	-126.08878	159.37160	685.14603	-69.03325	165.50285	627.12498	-148.23855	174.01186	617.29088	-988.33260	1034.54323	474.68704	-982.78252	1040.80292	634.30813	-1141.61926	1034.14764	649.11713	-1111.48140	1039.56535	467.43935	-1054.48219	1376.47247	569.08195	-1189.08073	1414.83002	553.97125	-986.63055	1582.83295	587.24194	-1141.26106	1554.55215	657.05307	-1126.37405	1559.17465	494.26937	-1133.98888	1345.73975	741.20140	-1058.69949	1064.89754	773.18787	-1119.93965	1043.27499	781.25900	-1077.16141	1052.01103	719.23141	-964.07509	841.31004	718.39371	-926.94168	867.29080	721.22734	-937.11586	884.45091	687.15332	-1081.80473	1352.40997	389.62231	-1056.72821	1041.12465	350.66433	-1014.54643	1063.88481	408.20347	-1009.69406	1056.73882	354.32720	-938.51616	876.66237	482.03728	-921.91475	862.45949	445.06340	-889.79485	888.03871	465.54417	-1080.73181	875.41260	732.23259	-1039.23767	889.83124	395.87769	-1030.53955	452.32178	642.33261	-1139.16176	485.72727	685.71793	-1117.17628	485.53680	567.62386	-1014.82979	465.54417	511.45565	-1097.31041	479.90124	414.61155	-1120.90881	479.20284	538.59280	-1100.69794	165.55389	663.64685	-1133.03101	162.18430	597.46880	-1181.97739	153.09220	666.12144	-1067.46735	166.03605	457.80354	-1128.32169	167.95284	422.04700	-1127.55966	173.09898	511.68579 
21	18.000	-221.83819	1072.55516	744.51591	-280.14950	1088.68835	545.53249	-108.48018	1114.94141	458.82751	-34.07904	1095.33005	693.50731	-203.16463	1453.22296	653.54652	-86.60256	1500.17868	654.56085	-248.27383	1675.88730	643.65021	-93.23403	1647.13165	585.00263	-107.81332	1635.36072	732.05086	-159.92260	1452.40280	441.35948	-132.33499	1137.61559	338.22361	-104.95646	1117.03529	389.36592	-197.48354	1145.39581	379.49455	-235.44220	911.68900	336.72802	-264.14675	922.62596	371.33831	-235.79943	914.20288	403.10978	-91.19229	1423.28613	831.73698	-71.93039	1104.19609	825.76797	-129.42825	1126.49872	891.09413	-60.88997	1121.28693	894.41017	-210.33417	875.49911	874.68063	-197.66460	865.67841	919.29657	-152.51045	859.52782	908.75702	-158.05147	925.57510	411.60686	-132.29529	888.81737	776.70929	-241.91505	424.49200	425.91095	-168.99256	456.05045	381.36677	-181.44648	427.14058	503.78220	-186.83657	443.28194	710.21332	-81.65033	468.15434	698.94341	-177.21899	443.88596	617.38621	-202.29622	184.74333	385.99346	-181.59492	174.71035	448.30997	-125.95910	176.43410	381.02184	-125.64814	159.31143	684.83192	-69.12069	165.44590	627.09812	-148.24660	174.01972	617.24407	-988.16315	1034.51126	474.59251	-982.55966	1040.87662	634.18037	-1141.41548	1034.18335	649.08302	-1111.34010	1039.48189	467.37946	-1054.03542	1376.52679	568.61897	-1188.74214	1414.43924	553.69728	-986.65306	1583.20526	587.45125	-1140.92331	1553.80127	657.43034	-1126.51489	1559.44443	494.73660	-1133.91693	1345.94223	740.82451	-1059.52286	1064.98466	773.57536	-1120.93956	1043.53294	781.42723	-1077.85645	1052.04758	719.55650	-964.04312	841.36856	719.32838	-926.98029	867.71568	721.68556	-937.51434	884.73312	687.59163	-1081.46187	1352.28271	389.30946	-1056.94305	1040.89577	349.41078	-1015.07980	1063.67393	407.09675	-1010.01656	1056.52451	353.22197	-939.10248	877.22290	481.82999	-922.18636	862.97142	445.34142	-890.15823	888.70766	465.84835	-1080.36316	875.36591	732.30049	-1039.10004	889.84932	395.92045	-1030.30159	452.35348	642.36076	-1138.88359	485.74718	685.74562	-1116.94000	485.61626	567.63371	-1014.17786	465.62122	510.89169	-1097.27753	479.92687	414.64657	-1120.76904	479.25888	538.66459	-1100.62340	165.58371	663.67615	-1132.95082	162.24363	597.45785	-1181.90369	153.16210	666.13113	-1067.42294	166.06323	457.73727	-1128.30956	167.98229	422.04102	-1127.49146	173.10617	511.70265 
